# xmcd
#
# Track frame offsets:
# 150
# 17220
# 31670
# 44275
# 61396
# 77311
# 93497
# 109956
# 122767
# 140735
# 153076
# 171240
# 188383
# 205328
# 225095
# 241834
# 255719
# 268000
# 282464
# 300005
#
# Disc length: 4266 seconds
#
#
# Revision: 3
# Processed by: cddbd v1.5.2PL0 Copyright (c) Steve Scherf et al.
# Submitted via: FreeRIP 2.943 
#
DISCID=fb10a814
DTITLE=Now Hits and Cool Tracks - CD 2
DYEAR=2007
DGENRE=Pop
TTITLE0=Trolle Siebenhaar - Sweet Dogs
TTITLE1=Jamelia - Beware Of The Dog
TTITLE2=Vanesse Hudgens - Come Back To Me
TTITLE3=The Killers - Bones
TTITLE4=Lady Sovereign - Love Me Or Hate Me
TTITLE5=The Fratellis - Chelsea Dagger
TTITLE6=The Game - Let's Ride
TTITLE7=The Kooks - She Moves In Her Own Way
TTITLE8=Pink - Nobody Knows
TTITLE9=The Good, The Bad And The Queen - Kingdom Of Dome
TTITLE10=Dallas Superstar - Fine Day
TTITLE11=Lcd Soundsystem - North American Scum
TTITLE12=Amerie - Take Control
TTITLE13=The Fray - How To Save A Life
TTITLE14=Monica feat. Dem Franchize Boys - Every Time Tha Beat Drop
TTITLE15=Thomas Buttenschøn - November I København
TTITLE16=Mason vs. Princess Superstar - Perfect/Exceeder
TTITLE17=Imogen Heap - Headlock
TTITLE18=Marie Key Band - Er Det Nu
TTITLE19=Snow Patrol - Chasing Cars
EXTD=Now Music - The Voice
EXTT0=
EXTT1=
EXTT2=
EXTT3=
EXTT4=
EXTT5=
EXTT6=
EXTT7=
EXTT8=
EXTT9=
EXTT10=
EXTT11=
EXTT12=
EXTT13=
EXTT14=
EXTT15=
EXTT16=
EXTT17=
EXTT18=
EXTT19=
PLAYORDER=
